<svg width="104" height="26" viewBox="0 0 104 26" fill="none" xmlns="http://www.w3.org/2000/svg">
<path d="M45.105 8.575V19H43.395V11.86L40.215 19H39.03L35.835 11.86V19H34.125V8.575H35.97L39.63 16.75L43.275 8.575H45.105ZM54.9275 14.665C54.9275 14.975 54.9075 15.255 54.8675 15.505H48.5525C48.6025 16.165 48.8475 16.695 49.2875 17.095C49.7275 17.495 50.2675 17.695 50.9075 17.695C51.8275 17.695 52.4775 17.31 52.8575 16.54H54.7025C54.4525 17.3 53.9975 17.925 53.3375 18.415C52.6875 18.895 51.8775 19.135 50.9075 19.135C50.1175 19.135 49.4075 18.96 48.7775 18.61C48.1575 18.25 47.6675 17.75 47.3075 17.11C46.9575 16.46 46.7825 15.71 46.7825 14.86C46.7825 14.01 46.9525 13.265 47.2925 12.625C47.6425 11.975 48.1275 11.475 48.7475 11.125C49.3775 10.775 50.0975 10.6 50.9075 10.6C51.6875 10.6 52.3825 10.77 52.9925 11.11C53.6025 11.45 54.0775 11.93 54.4175 12.55C54.7575 13.16 54.9275 13.865 54.9275 14.665ZM53.1425 14.125C53.1325 13.495 52.9075 12.99 52.4675 12.61C52.0275 12.23 51.4825 12.04 50.8325 12.04C50.2425 12.04 49.7375 12.23 49.3175 12.61C48.8975 12.98 48.6475 13.485 48.5675 14.125H53.1425ZM64.0954 10.735V19H62.3854V18.025C62.1154 18.365 61.7604 18.635 61.3204 18.835C60.8904 19.025 60.4304 19.12 59.9404 19.12C59.2904 19.12 58.7054 18.985 58.1854 18.715C57.6754 18.445 57.2704 18.045 56.9704 17.515C56.6804 16.985 56.5354 16.345 56.5354 15.595V10.735H58.2304V15.34C58.2304 16.08 58.4154 16.65 58.7854 17.05C59.1554 17.44 59.6604 17.635 60.3004 17.635C60.9404 17.635 61.4454 17.44 61.8154 17.05C62.1954 16.65 62.3854 16.08 62.3854 15.34V10.735H64.0954ZM77.538 11.68C77.538 12.21 77.413 12.71 77.163 13.18C76.913 13.65 76.513 14.035 75.963 14.335C75.413 14.625 74.708 14.77 73.848 14.77H71.958V19H70.248V8.575H73.848C74.648 8.575 75.323 8.715 75.873 8.995C76.433 9.265 76.848 9.635 77.118 10.105C77.398 10.575 77.538 11.1 77.538 11.68ZM73.848 13.375C74.498 13.375 74.983 13.23 75.303 12.94C75.623 12.64 75.783 12.22 75.783 11.68C75.783 10.54 75.138 9.97 73.848 9.97H71.958V13.375H73.848ZM86.7439 14.665C86.7439 14.975 86.7239 15.255 86.6839 15.505H80.3689C80.4189 16.165 80.6639 16.695 81.1039 17.095C81.5439 17.495 82.0839 17.695 82.7239 17.695C83.6439 17.695 84.2939 17.31 84.6739 16.54H86.5189C86.2689 17.3 85.8139 17.925 85.1539 18.415C84.5039 18.895 83.6939 19.135 82.7239 19.135C81.9339 19.135 81.2239 18.96 80.5939 18.61C79.9739 18.25 79.4839 17.75 79.1239 17.11C78.7739 16.46 78.5989 15.71 78.5989 14.86C78.5989 14.01 78.7689 13.265 79.1089 12.625C79.4589 11.975 79.9439 11.475 80.5639 11.125C81.1939 10.775 81.9139 10.6 82.7239 10.6C83.5039 10.6 84.1989 10.77 84.8089 11.11C85.4189 11.45 85.8939 11.93 86.2339 12.55C86.5739 13.16 86.7439 13.865 86.7439 14.665ZM84.9589 14.125C84.9489 13.495 84.7239 12.99 84.2839 12.61C83.8439 12.23 83.2989 12.04 82.6489 12.04C82.0589 12.04 81.5539 12.23 81.1339 12.61C80.7139 12.98 80.4639 13.485 80.3839 14.125H84.9589ZM90.4218 12.13V16.705C90.4218 17.015 90.4918 17.24 90.6318 17.38C90.7818 17.51 91.0318 17.575 91.3818 17.575H92.4318V19H91.0818C90.3118 19 89.7218 18.82 89.3118 18.46C88.9018 18.1 88.6968 17.515 88.6968 16.705V12.13H87.7218V10.735H88.6968V8.68H90.4218V10.735H92.4318V12.13H90.4218ZM94.6978 19.105C94.3878 19.105 94.1278 19 93.9178 18.79C93.7078 18.58 93.6028 18.32 93.6028 18.01C93.6028 17.7 93.7078 17.44 93.9178 17.23C94.1278 17.02 94.3878 16.915 94.6978 16.915C94.9978 16.915 95.2528 17.02 95.4628 17.23C95.6728 17.44 95.7778 17.7 95.7778 18.01C95.7778 18.32 95.6728 18.58 95.4628 18.79C95.2528 19 94.9978 19.105 94.6978 19.105Z" fill="#084236"/>
<path d="M18.9449 16.4335C19.5174 14.4401 20.8596 14.7757 21.3908 16.4667C21.6171 17.047 21.8631 17.6138 22.1169 18.093C22.5224 18.8587 23.1064 19.7006 23.7026 20.4804C24.3693 21.3524 23.5811 22.7393 22.5207 22.5223C21.5494 22.3235 20.6468 22.1575 20.2147 22.1285C19.7805 22.0994 18.8711 22.2513 17.8944 22.4552C16.8347 22.6764 16.0084 21.3053 16.6593 20.4208C17.2241 19.6532 17.7791 18.8324 18.1766 18.093C18.44 17.6032 18.7015 17.0243 18.9449 16.4335Z" fill="#084236"/>
<path d="M25.0544 11.8583C24.8775 12.8356 23.9418 13.4843 22.9646 13.3074C21.9874 13.1305 21.3386 12.1948 21.5155 11.2176C21.6925 10.2404 22.7334 8.8944 23.7106 9.07133C24.6878 9.24826 25.2313 10.8811 25.0544 11.8583Z" fill="#084236"/>
<path d="M18.9922 11.2391C19.0956 12.2268 18.3787 13.1114 17.3909 13.2147C16.4032 13.3181 15.5187 12.6012 15.4153 11.6135C15.3119 10.6258 15.8028 9.06128 16.7905 8.95789C17.7782 8.8545 18.8888 10.2514 18.9922 11.2391Z" fill="#084236"/>
<path d="M15.7058 16.4724C15.8515 17.4548 15.1733 18.3693 14.191 18.5151C13.2086 18.6609 12.2941 17.9827 12.1483 17.0003C12.0025 16.0179 12.5961 14.5332 13.5785 14.3874C14.5608 14.2416 15.56 15.49 15.7058 16.4724Z" fill="#084236"/>
<path d="M28.3094 16.8471C28.2097 17.8352 27.3279 18.5554 26.3398 18.4557C25.3517 18.3561 24.6315 17.4742 24.7311 16.4861C24.8308 15.498 25.7705 14.2043 26.7586 14.3039C27.7467 14.4036 28.4091 15.859 28.3094 16.8471Z" fill="#084236"/>
<path d="M9.51592 4.94828C9.51592 3.26652 10.8793 1.90319 12.561 1.90319C14.2428 1.90319 15.6061 3.26652 15.6061 4.94828L15.6061 6.93011C16.0911 6.67307 16.5999 6.45264 17.1286 6.27269V4.94828C17.1286 2.42565 15.0836 0.380646 12.561 0.380646C10.0384 0.380646 7.99338 2.42565 7.99337 4.94828L7.99337 7.99337H4.94828C2.42565 7.99337 0.380646 10.0384 0.380646 12.561C0.380646 15.0836 2.42565 17.1286 4.94828 17.1286H7.99337V20.1737C7.99337 22.6964 10.0384 24.7414 12.561 24.7414C13.4924 24.7414 14.3587 24.4626 15.081 23.9839C14.5968 23.6899 14.1398 23.3581 13.7146 22.9927C13.3588 23.1385 12.9693 23.2188 12.561 23.2188C10.8793 23.2188 9.51592 21.8555 9.51592 20.1737V15.6061H4.94828C3.26653 15.6061 1.90319 14.2428 1.90319 12.561C1.90319 10.8793 3.26653 9.51592 4.94828 9.51592H9.51592L9.51592 4.94828Z" fill="#084236"/>
<path fill-rule="evenodd" clip-rule="evenodd" d="M12.561 0.761273C10.2486 0.761273 8.374 2.63586 8.374 4.94827L8.374 7.99336C8.374 8.20358 8.20358 8.374 7.99336 8.374H4.94827C2.63586 8.374 0.761273 10.2486 0.761273 12.561C0.761273 14.8734 2.63586 16.748 4.94827 16.748H7.99336C8.20358 16.748 8.374 16.9184 8.374 17.1286V20.1737C8.374 22.4861 10.2486 24.3607 12.561 24.3607C13.2005 24.3607 13.8059 24.2176 14.3476 23.9616C14.1034 23.7927 13.867 23.6141 13.6389 23.4263C13.2996 23.5387 12.9371 23.5995 12.561 23.5995C10.669 23.5995 9.13527 22.0657 9.13527 20.1737V15.9867H4.94827C3.0563 15.9867 1.52255 14.453 1.52255 12.561C1.52255 10.669 3.0563 9.13527 4.94827 9.13527H9.13527L9.13527 4.94827C9.13527 3.0563 10.669 1.52255 12.561 1.52255C14.453 1.52255 15.9867 3.0563 15.9867 4.94827L15.9867 6.31797C16.2353 6.20409 16.4893 6.09923 16.748 6.0038V4.94827C16.748 2.63586 14.8734 0.761273 12.561 0.761273ZM7.61273 4.94827C7.61273 2.21542 9.82815 0 12.561 0C15.2939 0 17.5093 2.21542 17.5093 4.94827V6.27268C17.5093 6.43563 17.4055 6.58051 17.2513 6.63301C16.7418 6.80642 16.2515 7.0188 15.7843 7.26642C15.6664 7.32895 15.5242 7.32509 15.4098 7.25624C15.2954 7.18739 15.2255 7.06363 15.2255 6.9301L15.2255 4.94827C15.2255 3.47673 14.0325 2.28382 12.561 2.28382C11.0895 2.28382 9.89655 3.47674 9.89655 4.94827L9.89655 9.51591C9.89655 9.72613 9.72613 9.89655 9.51591 9.89655H4.94827C3.47674 9.89655 2.28382 11.0895 2.28382 12.561C2.28382 14.0325 3.47674 15.2255 4.94827 15.2255H9.51591C9.72613 15.2255 9.89655 15.3959 9.89655 15.6061V20.1737C9.89655 21.6453 11.0895 22.8382 12.561 22.8382C12.9189 22.8382 13.2595 22.7678 13.5703 22.6405C13.7026 22.5863 13.8542 22.6108 13.9627 22.704C14.372 23.0558 14.8121 23.3754 15.2785 23.6585C15.3899 23.7262 15.459 23.8461 15.4616 23.9764C15.4642 24.1066 15.3999 24.2292 15.2913 24.3012C14.5086 24.8199 13.5695 25.122 12.561 25.122C9.82815 25.122 7.61273 22.9066 7.61273 20.1737V17.5093H4.94827C2.21542 17.5093 0 15.2939 0 12.561C0 9.82815 2.21542 7.61273 4.94827 7.61273H7.61273L7.61273 4.94827ZM17.9401 9.94403C17.5529 9.51412 17.1398 9.30403 16.8301 9.33645C16.5424 9.36657 16.2563 9.62294 16.0418 10.108C15.8342 10.5776 15.7494 11.1491 15.7939 11.5739C15.8754 12.3525 16.5727 12.9177 17.3513 12.8362C18.13 12.7547 18.6951 12.0574 18.6136 11.2787C18.5726 10.887 18.3174 10.363 17.9401 9.94403ZM18.5058 9.4346C18.9565 9.93514 19.3083 10.6034 19.3707 11.1995C19.496 12.3963 18.6274 13.468 17.4306 13.5933C16.2338 13.7186 15.162 12.8499 15.0367 11.6531C14.9778 11.0901 15.0867 10.3855 15.3456 9.80013C15.5976 9.23016 16.0509 8.65258 16.7509 8.57931C17.4289 8.50834 18.0649 8.94499 18.5058 9.4346ZM22.5921 9.97036C22.2285 10.3628 21.9636 10.8795 21.8901 11.2854C21.7506 12.0558 22.262 12.7934 23.0324 12.9329C23.8028 13.0723 24.5404 12.5609 24.6799 11.7905C24.7525 11.389 24.678 10.8124 24.4653 10.3142C24.2461 9.80085 23.9398 9.49965 23.6428 9.44587C23.3487 9.39262 22.9671 9.56567 22.5921 9.97036ZM22.0337 9.45294C22.4677 8.98457 23.0953 8.5731 23.7784 8.69678C24.4586 8.81992 24.9127 9.4236 25.1654 10.0152C25.4245 10.622 25.5332 11.3504 25.4289 11.9261C25.2146 13.1102 24.0809 13.8963 22.8968 13.6819C21.7127 13.4676 20.9266 12.3339 21.141 11.1498C21.2444 10.5784 21.5883 9.9336 22.0337 9.45294ZM25.7012 15.2342C25.3724 15.6194 25.1507 16.1191 25.1099 16.5243C25.0313 17.3033 25.599 17.9984 26.378 18.077C27.1569 18.1556 27.8521 17.5878 27.9307 16.8089C27.9716 16.4036 27.8541 15.8698 27.6089 15.4267C27.3588 14.9748 27.0339 14.7143 26.7204 14.6826C26.4069 14.651 26.0365 14.8414 25.7012 15.2342ZM25.1222 14.74C25.5287 14.2638 26.1222 13.8572 26.7968 13.9252C27.4714 13.9933 27.9718 14.5103 28.2749 15.058C28.583 15.6146 28.7469 16.3024 28.6881 16.8853C28.5673 18.0826 27.4988 18.9552 26.3016 18.8344C25.1043 18.7137 24.2316 17.6452 24.3524 16.4479C24.4112 15.8651 24.7092 15.2238 25.1222 14.74ZM14.6782 15.2672C14.3249 14.8905 13.946 14.7177 13.6343 14.7639C13.3227 14.8102 13.0103 15.0856 12.7816 15.5487C12.5573 16.0027 12.465 16.5415 12.5248 16.9444C12.6397 17.7188 13.3607 18.2535 14.1351 18.1386C14.9095 18.0236 15.4442 17.3027 15.3292 16.5283C15.2694 16.1254 15.0246 15.6366 14.6782 15.2672ZM15.2335 14.7464C15.6686 15.2104 15.9963 15.8371 16.0823 16.4165C16.2589 17.6068 15.4371 18.715 14.2468 18.8916C13.0565 19.0682 11.9484 18.2465 11.7718 17.0562C11.6858 16.4767 11.8174 15.7819 12.099 15.2116C12.3763 14.6502 12.8519 14.1104 13.5226 14.0109C14.1933 13.9114 14.8052 14.2898 15.2335 14.7464ZM19.7678 15.6242C19.6112 15.7865 19.4438 16.0754 19.3108 16.5385L19.3049 16.5589L19.2969 16.5785C19.0508 17.1757 18.7838 17.7677 18.5119 18.2733C18.102 19.0355 17.5351 19.8728 16.9659 20.6463C16.7508 20.9386 16.765 21.3317 16.961 21.6555C17.1568 21.979 17.4824 22.1524 17.8166 22.0826C18.3086 21.9799 18.7882 21.8893 19.2022 21.8279C19.6073 21.7679 19.9787 21.7312 20.2402 21.7487C20.7033 21.7798 21.6334 21.9521 22.597 22.1494C22.9282 22.2171 23.2435 22.0434 23.4292 21.7201C23.6156 21.3958 23.6217 21.0014 23.4002 20.7116C22.7988 19.925 22.2004 19.0639 21.7805 18.2712C21.5173 17.7741 21.2653 17.1926 21.0362 16.6049L21.0315 16.593L21.0277 16.5808C20.9066 16.1955 20.7455 15.9082 20.5792 15.7192C20.4116 15.5286 20.2584 15.4582 20.1464 15.4473C20.0464 15.4375 19.9176 15.4689 19.7678 15.6242ZM21.75 16.3401C21.6056 15.8853 21.4012 15.501 21.1508 15.2164C20.8995 14.9307 20.5818 14.7248 20.2202 14.6896C19.8468 14.6533 19.4994 14.806 19.22 15.0956C18.9509 15.3745 18.7379 15.784 18.5851 16.3076C18.3466 16.8853 18.0935 17.444 17.8414 17.9128C17.4561 18.6292 16.9131 19.4335 16.3527 20.1952C15.9169 20.7874 15.9904 21.5222 16.3098 22.0497C16.6293 22.5776 17.2467 22.9793 17.9721 22.8278C18.4569 22.7266 18.9204 22.6393 19.3138 22.581C19.7161 22.5214 20.0165 22.4967 20.1892 22.5083C20.5903 22.5352 21.4654 22.6948 22.4443 22.8952C23.1736 23.0444 23.7826 22.6332 24.0893 22.0994C24.3955 21.5665 24.4501 20.8315 24.005 20.2492C23.4139 19.4761 22.8444 18.6535 22.4533 17.9149C22.2106 17.4566 21.9721 16.909 21.75 16.3401Z" fill="#084236"/>
</svg>
